<?xml version="1.0" encoding="UTF-8"?><svg id="Layer_2" xmlns="http://www.w3.org/2000/svg" viewBox="0 0 76.91 76.91"><defs><style>.cls-1{fill:#010101;}.cls-2{fill:#fff;}</style></defs><g id="Layer_1-2"><circle class="cls-1" cx="38.45" cy="38.45" r="38.45"/><g id="WtewMK"><path class="cls-2" d="M63.63,38.51c0,13.83-11.14,24.81-25.13,24.79-13.54-.02-24.58-11.21-24.57-24.91,0-13.77,11.13-24.81,24.98-24.79,13.69,.02,24.73,11.15,24.72,24.91Zm-18.29-9.82c-.74-4.1-1.55-7.92-3.75-11.26-2.06-3.12-4.34-3.11-6.48-.07-.11,.16-.21,.32-.31,.49-1.92,3.25-2.75,6.85-3.46,10.84h14.01Zm-14.01,19.5c.17,.95,.25,1.47,.36,1.98,.78,3.49,1.59,6.99,3.84,9.9,1.81,2.33,3.83,2.35,5.6,0,2.6-3.46,3.42-7.57,4.21-11.88h-14.01Zm14.28-17.89h-14.56c-.16,2.38-.33,4.81-.5,7.29h15.59c-.18-2.51-.36-4.9-.53-7.29Zm-15.08,8.95c.2,2.6,.38,5.06,.55,7.35h14.55c.16-2.44,.32-4.86,.49-7.35h-15.59Zm-9.97-1.65h8.44c.2-2.63,.39-5.16,.58-7.7-2.32-.58-4.59-1.14-7.26-1.8-.59,3.16-1.16,6.27-1.76,9.51Zm8.44,1.71h-8.45c.61,3.26,1.18,6.34,1.77,9.48,2.67-.66,4.97-1.24,7.26-1.81-.2-2.59-.38-5.08-.58-7.68Zm27.12-1.7c-.58-3.17-1.13-6.19-1.69-9.23-2.69,.61-4.97,1.12-7.31,1.65,.19,2.55,.37,5.06,.56,7.58h8.45Zm0,1.67h-8.45c-.18,2.6-.36,5.12-.53,7.58,2.43,.55,4.71,1.06,7.31,1.65,.56-3.09,1.1-6.08,1.67-9.23Zm-13.89-23.63c2.86,4.04,3.78,8.37,4.68,12.89,2.29-.53,4.45-1.03,6.75-1.55-2.44-5.27-5.69-9.25-11.43-11.33Zm.35,45.33c5.43-1.88,8.7-5.86,11.07-11.09-2.33-.52-4.51-1.01-6.76-1.51-.89,4.55-1.84,8.84-4.32,12.61ZM23.13,26.75c2.3,.56,4.46,1.09,6.69,1.63,.88-4.55,1.85-8.76,4.63-12.72-5.66,2.03-8.89,5.96-11.32,11.09Zm.07,23.38c2.31,5.56,7.38,10.46,11.04,10.79-2.66-3.67-3.51-7.98-4.47-12.41-2.25,.55-4.34,1.07-6.57,1.62Zm38.96-12.5c-.28-4.16-1.29-7.89-3.46-11.31-1.11,.56-2.08,1.05-2.82,1.43,.61,3.4,1.18,6.6,1.76,9.88h4.52Zm-6.3,11.55c.89,.43,1.87,.89,2.89,1.38,2.09-3.55,3.24-7.23,3.35-11.28h-4.46c-.59,3.31-1.17,6.51-1.78,9.9Zm-36.87-11.55c.66-3.45,1.3-6.82,1.95-10.25-.62-.31-1.34-.66-2.13-1.05-2.1,3.52-3.23,7.21-3.36,11.3h3.54Zm-3.58,1.65c.22,4.08,1.27,7.8,3.43,11.31,.83-.42,1.57-.81,2.09-1.07-.67-3.53-1.29-6.86-1.93-10.23h-3.58ZM49.38,17.66c1.97,2.82,3.94,5.64,6,8.6,.62-.3,1.5-.73,2.49-1.21-2.33-3.27-5.14-5.7-8.49-7.38Zm6.02,32.99c-2.1,3-4.08,5.81-6.07,8.65,3.39-1.77,6.24-4.16,8.53-7.43-.97-.48-1.82-.9-2.46-1.22ZM21.52,25.99c1.7-2.54,3.3-4.93,4.93-7.37-2.64,1.69-4.88,3.75-6.75,6.4,.72,.38,1.31,.69,1.82,.97Zm-1.68,25.82c1.09,2.23,4.79,5.68,6.4,6.2-1.47-2.2-3.08-4.62-4.72-7.09-.5,.27-1.09,.58-1.68,.89Z"/></g></g></svg>