<?xml version="1.0" encoding="UTF-8"?><svg xmlns="http://www.w3.org/2000/svg" viewBox="0 0 446.7 361.58"><defs><style>.cls-1{fill:#fff;}.cls-2{isolation:isolate;}.cls-3{font-family:HelveticaNeue-Light, 'Helvetica Neue';font-size:27.19px;}.cls-3,.cls-4{fill:#e5ceb5;}.cls-4{font-family:BahijTheSansArabic-SemiBold, 'Bahij TheSansArabic';font-size:29.36px;}.cls-5{fill:#a9806e;mix-blend-mode:multiply;}</style></defs><g class="cls-2"><g id="Layer_2"><g id="Layer_1-2"><g><rect class="cls-5" width="446.7" height="361.58"/><g><text class="cls-4" transform="translate(90.89 253.78)"><tspan x="0" y="0">ةــــيرثأا مــلاـــعما</tspan></text><text class="cls-3" transform="translate(96.42 295.61)"><tspan x="0" y="0">TAYMA LANDMARKS</tspan></text></g><g><polygon class="cls-1" points="142.93 134.49 96.51 134.49 96.51 137.85 116.08 137.85 116.08 189.52 123.36 189.52 123.36 137.85 142.93 137.85 142.93 134.49"/><path class="cls-1" d="M160.13,134.49l-21.6,55.03h3.77l7.48-18.95h22.37l7.41,18.95h7.62l-21.61-55.03h-5.45Zm-9.01,32.72l9.92-25.1,9.85,25.1h-19.77Z"/><path class="cls-1" d="M323.23,134.49l-21.6,55.03h3.77l7.48-18.95h22.37l7.41,18.95h7.62l-21.61-55.03h-5.45Zm-9.01,32.72l9.92-25.1,9.85,25.1h-19.77Z"/><polygon class="cls-1" points="208.22 162.53 191.09 134.49 183.19 134.49 202.48 165.96 202.48 189.52 209.76 189.52 209.76 166.03 229.27 134.49 225.28 134.49 208.22 162.53"/><polygon class="cls-1" points="281.28 134.49 264.85 181.2 247.37 134.49 238.63 134.49 236.25 189.52 240.03 189.52 242.2 140.64 260.73 189.52 265.48 189.52 282.68 140.71 284.64 189.52 292.05 189.52 289.67 134.49 281.28 134.49"/><g><rect class="cls-1" x="96.51" y="113.1" width="29.35" height="3.36"/><polygon class="cls-1" points="122.84 90.91 105.02 99.01 105.02 107.82 122.84 99.63 122.84 90.91"/><polygon class="cls-1" points="318.66 96.79 324.94 90.51 318.76 84.34 324.94 78.16 318.66 71.89 312.38 78.16 318.55 84.34 312.38 90.51 318.66 96.79"/><path class="cls-1" d="M337.73,73.07v40.02h-38.15v-40.02h-71.09c-11.98,0-21.69,9.71-21.69,21.69,0,7.72,4.03,14.49,10.11,18.33h-71.4V61.43h-7.27v55.03h90.26c11.98,0,21.69-9.71,21.69-21.69,0-7.72-4.03-14.49-10.11-18.33h52.24v40.02h52.52l.18-43.38h-7.27Zm-109.25,40.58c-7.63,0-13.81-6.85-13.81-18.89s6.18-18.89,13.81-18.89,13.81,6.85,13.81,18.89-6.18,18.89-13.81,18.89Z"/><polygon class="cls-1" points="270.29 92.73 264.01 99.01 270.18 105.18 264.01 111.35 270.29 117.63 276.57 111.35 270.4 105.18 276.57 99.01 270.29 92.73"/></g></g></g></g></g></g></svg>