<?xml version="1.0" encoding="UTF-8"?><svg id="Layer_2" xmlns="http://www.w3.org/2000/svg" viewBox="0 0 254.63 243.35"><defs><style>.cls-1{fill:#fff;}.cls-2{font-family:HelveticaNeue-Light, 'Helvetica Neue';font-size:27.19px;}.cls-2,.cls-3{fill:#e5ceb5;}.cls-3{font-family:BahijTheSansArabic-SemiBold, 'Bahij TheSansArabic';font-size:29.36px;}</style></defs><g id="Layer_1-2"><g><g><text class="cls-3" transform="translate(-5.42 192.36)"><tspan x="0" y="0">ةــــيرثأا مــلاـــعما</tspan></text><text class="cls-2" transform="translate(.11 234.19)"><tspan x="0" y="0">TAYMA LANDMARKS</tspan></text></g><g><polygon class="cls-1" points="46.62 73.07 .19 73.07 .19 76.42 19.77 76.42 19.77 128.09 27.04 128.09 27.04 76.42 46.62 76.42 46.62 73.07"/><path class="cls-1" d="M63.82,73.07l-21.6,55.03h3.77l7.48-18.95h22.37l7.41,18.95h7.62l-21.61-55.03h-5.45Zm-9.01,32.72l9.92-25.1,9.85,25.1h-19.77Z"/><path class="cls-1" d="M226.92,73.07l-21.6,55.03h3.77l7.48-18.95h22.37l7.41,18.95h7.62l-21.61-55.03h-5.45Zm-9.01,32.72l9.92-25.1,9.85,25.1h-19.77Z"/><polygon class="cls-1" points="111.91 101.1 94.78 73.07 86.87 73.07 106.17 104.53 106.17 128.09 113.45 128.09 113.45 104.6 132.95 73.07 128.97 73.07 111.91 101.1"/><polygon class="cls-1" points="184.97 73.07 168.54 119.77 151.06 73.07 142.32 73.07 139.94 128.09 143.72 128.09 145.89 79.22 164.41 128.09 169.17 128.09 186.37 79.29 188.33 128.09 195.74 128.09 193.36 73.07 184.97 73.07"/><g><rect class="cls-1" x=".19" y="51.67" width="29.35" height="3.36"/><polygon class="cls-1" points="26.53 29.48 8.71 37.59 8.71 46.39 26.53 38.2 26.53 29.48"/><polygon class="cls-1" points="222.35 35.36 228.62 29.08 222.45 22.91 228.62 16.74 222.35 10.46 216.07 16.74 222.24 22.91 216.07 29.08 222.35 35.36"/><path class="cls-1" d="M241.42,11.65V51.67h-38.15V11.65h-71.09c-11.98,0-21.69,9.71-21.69,21.69,0,7.72,4.03,14.49,10.11,18.33H49.19V0h-7.27V55.03h90.26c11.98,0,21.69-9.71,21.69-21.69,0-7.72-4.03-14.49-10.11-18.33h52.24V55.03h52.52l.18-43.38h-7.27Zm-109.25,40.58c-7.63,0-13.81-6.85-13.81-18.89s6.18-18.89,13.81-18.89,13.81,6.85,13.81,18.89-6.18,18.89-13.81,18.89Z"/><polygon class="cls-1" points="173.98 31.31 167.7 37.59 173.87 43.76 167.7 49.93 173.98 56.21 180.26 49.93 174.09 43.76 180.26 37.59 173.98 31.31"/></g></g></g></g></svg>